<svg width="34" height="30" viewBox="0 0 34 30" fill="none" xmlns="http://www.w3.org/2000/svg">
<path d="M13.3334 29.6667C12.3609 29.6667 11.4283 29.2804 10.7406 28.5927C10.053 27.9051 9.66669 26.9725 9.66669 26C9.66669 25.0275 10.053 24.0949 10.7406 23.4073C11.4283 22.7196 12.3609 22.3333 13.3334 22.3333C14.3058 22.3333 15.2385 22.7196 15.9261 23.4073C16.6137 24.0949 17 25.0275 17 26C17 26.9725 16.6137 27.9051 15.9261 28.5927C15.2385 29.2804 14.3058 29.6667 13.3334 29.6667ZM26.1667 29.6667C25.1942 29.6667 24.2616 29.2804 23.574 28.5927C22.8863 27.9051 22.5 26.9725 22.5 26C22.5 25.0275 22.8863 24.0949 23.574 23.4073C24.2616 22.7196 25.1942 22.3333 26.1667 22.3333C27.1392 22.3333 28.0718 22.7196 28.7594 23.4073C29.4471 24.0949 29.8334 25.0275 29.8334 26C29.8334 26.9725 29.4471 27.9051 28.7594 28.5927C28.0718 29.2804 27.1392 29.6667 26.1667 29.6667ZM2.2637 3.85884C1.80602 3.84408 1.37204 3.6519 1.05351 3.32293C0.73498 2.99396 0.556885 2.554 0.556885 2.09609C0.556885 1.63818 0.73498 1.19823 1.05351 0.869259C1.37204 0.540291 1.80602 0.348105 2.2637 0.333344H4.37386C6.02753 0.333344 7.45753 1.48101 7.81686 3.09434L10.114 13.438C10.4734 15.0513 11.9034 16.199 13.557 16.199H27.329L29.9727 5.62068H12.8402C12.3868 5.59999 11.9589 5.40533 11.6454 5.07719C11.3319 4.74905 11.1569 4.31268 11.1569 3.85884C11.1569 3.40501 11.3319 2.96864 11.6454 2.6405C11.9589 2.31236 12.3868 2.1177 12.8402 2.09701H29.9727C30.5086 2.09685 31.0376 2.21889 31.5193 2.45384C32.001 2.68879 32.4228 3.03047 32.7526 3.45291C33.0824 3.87535 33.3116 4.36743 33.4227 4.89174C33.5338 5.41604 33.5238 5.95877 33.3937 6.47868L30.75 17.0533C30.5594 17.8164 30.1192 18.4938 29.4993 18.9778C28.8794 19.4618 28.1155 19.7246 27.329 19.7245H13.557C11.9525 19.7247 10.3959 19.1777 9.14422 18.1737C7.89258 17.1697 7.02081 15.7689 6.67286 14.2025L4.37386 3.85884H2.2637Z" fill="black"/>
</svg>
