<svg width="17" height="15" viewBox="0 0 17 15" fill="none" xmlns="http://www.w3.org/2000/svg">
<path d="M1.28165 7.57545L8.11979 14.5L14.9579 7.57545C15.7794 6.73728 16.2396 5.61043 16.2396 4.4368C16.2396 3.26318 15.7794 2.13633 14.9579 1.29816C14.5534 0.887042 14.0712 0.560531 13.5392 0.337656C13.0073 0.114782 12.4363 0 11.8596 0C11.2829 0 10.7119 0.114782 10.1799 0.337656C9.64801 0.560531 9.16575 0.887042 8.76126 1.29816L8.11979 1.95124L7.47831 1.29816C7.07383 0.887042 6.59157 0.560531 6.05963 0.337656C5.5277 0.114782 4.95672 0 4.37998 0C3.80324 0 3.23227 0.114782 2.70033 0.337656C2.1684 0.560531 1.68614 0.887042 1.28165 1.29816C0.460144 2.13633 0 3.26318 0 4.4368C0 5.61043 0.460144 6.73728 1.28165 7.57545ZM14.1256 6.75417L8.11979 12.8325V3.6135C8.61085 3.11548 9.10211 2.61784 9.59355 2.1206C9.88923 1.81964 10.2419 1.58059 10.631 1.41741C11.02 1.25423 11.4377 1.17018 11.8596 1.17018C12.2815 1.17018 12.6992 1.25423 13.0882 1.41741C13.4773 1.58059 13.83 1.81964 14.1256 2.1206C14.7318 2.73939 15.0714 3.57113 15.0714 4.43738C15.0714 5.30364 14.7318 6.13538 14.1256 6.75417Z" fill="#DE3C4B"/>
</svg>
