<svg width="44" height="32" viewBox="0 0 44 32" fill="none" xmlns="http://www.w3.org/2000/svg">
<path d="M3.50002 0.583344H18.9167C19.7344 0.583344 20.5187 0.908194 21.0969 1.48643C21.6752 2.06467 22 2.84893 22 3.66668C22 4.48443 21.6752 5.26868 21.0969 5.84692C20.5187 6.42516 19.7344 6.75001 18.9167 6.75001H3.50002C2.68227 6.75001 1.89801 6.42516 1.31978 5.84692C0.741538 5.26868 0.416687 4.48443 0.416687 3.66668C0.416687 2.84893 0.741538 2.06467 1.31978 1.48643C1.89801 0.908194 2.68227 0.583344 3.50002 0.583344ZM25.0834 25.25H40.5C41.3178 25.25 42.102 25.5749 42.6803 26.1531C43.2585 26.7313 43.5834 27.5156 43.5834 28.3333C43.5834 29.1511 43.2585 29.9353 42.6803 30.5136C42.102 31.0918 41.3178 31.4167 40.5 31.4167H25.0834C24.2656 31.4167 23.4813 31.0918 22.9031 30.5136C22.3249 29.9353 22 29.1511 22 28.3333C22 27.5156 22.3249 26.7313 22.9031 26.1531C23.4813 25.5749 24.2656 25.25 25.0834 25.25ZM3.50002 12.9167H40.5C41.3178 12.9167 42.102 13.2415 42.6803 13.8198C43.2585 14.398 43.5834 15.1823 43.5834 16C43.5834 16.8178 43.2585 17.602 42.6803 18.1803C42.102 18.7585 41.3178 19.0833 40.5 19.0833H3.50002C2.68227 19.0833 1.89801 18.7585 1.31978 18.1803C0.741538 17.602 0.416687 16.8178 0.416687 16C0.416687 15.1823 0.741538 14.398 1.31978 13.8198C1.89801 13.2415 2.68227 12.9167 3.50002 12.9167Z" fill="black"/>
</svg>
