<svg width="119" height="44" viewBox="0 0 119 44" fill="none" xmlns="http://www.w3.org/2000/svg">
<path fill-rule="evenodd" clip-rule="evenodd" d="M15.2604 2.62246C7.57118 11.6525 0.19865 22.8506 0.124723 31.2208C0.09593 34.3701 1.10135 37.1194 3.51294 39.2019C6.98365 42.201 10.8077 43.2586 14.613 43.2648C20.1739 43.2726 25.6959 41.0291 30.0195 39.2991C37.301 36.3872 117.791 1.43339 117.791 1.43339C118.568 1.0443 118.422 0.559489 117.45 0.801505C117.058 0.899557 29.8242 24.5401 29.8242 24.5401C28.1718 25.0074 26.4644 25.2518 24.7473 25.2669C18.0432 25.3066 12.0777 21.5853 12.1259 13.7435C12.1446 10.6751 13.0838 6.97485 15.2604 2.62246Z" fill="black"/>
</svg>
